<?xml version="1.0" encoding="UTF-8" standalone="no"?>
<svg
   xmlns:dc="http://purl.org/dc/elements/1.1/"
   xmlns:cc="http://creativecommons.org/ns#"
   xmlns:rdf="http://www.w3.org/1999/02/22-rdf-syntax-ns#"
   xmlns:svg="http://www.w3.org/2000/svg"
   xmlns="http://www.w3.org/2000/svg"
   xmlns:sodipodi="http://sodipodi.sourceforge.net/DTD/sodipodi-0.dtd"
   xmlns:inkscape="http://www.inkscape.org/namespaces/inkscape"
   inkscape:version="1.0 (4035a4fb49, 2020-05-01)"
   sodipodi:docname="logo-side-black.svg"
   viewBox="0 0 724.04548 202.924"
   height="2.1137917in"
   width="7.542141in"
   xml:space="preserve"
   id="svg2"
   version="1.1"><metadata
     id="metadata8"><rdf:RDF><cc:Work
         rdf:about=""><dc:format>image/svg+xml</dc:format><dc:type
           rdf:resource="http://purl.org/dc/dcmitype/StillImage" /><dc:title></dc:title></cc:Work></rdf:RDF></metadata><defs
     id="defs6"><clipPath
       id="clipPath18"
       clipPathUnits="userSpaceOnUse"><path
         id="path16"
         d="M 0,600 H 800 V 0 H 0 Z" /></clipPath></defs><sodipodi:namedview
     fit-margin-bottom="0"
     fit-margin-right="0"
     fit-margin-left="0"
     fit-margin-top="0"
     units="in"
     inkscape:current-layer="g10"
     inkscape:window-maximized="0"
     inkscape:window-y="819"
     inkscape:window-x="66"
     inkscape:cy="211.93291"
     inkscape:cx="208.95183"
     inkscape:zoom="2.52"
     showgrid="false"
     id="namedview4"
     inkscape:window-height="1725"
     inkscape:window-width="3244"
     inkscape:pageshadow="2"
     inkscape:pageopacity="0"
     guidetolerance="10"
     gridtolerance="10"
     objecttolerance="10"
     borderopacity="1"
     bordercolor="#666666"
     pagecolor="#ffffff" /><g
     transform="matrix(1.3333333,0,0,-1.3333333,-245.42593,553.54255)"
     inkscape:label="Source File"
     inkscape:groupmode="layer"
     id="g10"><g
       style="fill:#000000"
       transform="translate(260.28645,349.51392)"
       id="g20"><path
         id="path22"
         style="fill:#000000;fill-opacity:1;fill-rule:evenodd;stroke:none"
         d="m 0,0 h -6.551 -6.547 -6.257 -6.548 -6.547 -6.549 -1.8 -1.95 -2.172 v -0.052 c 0.051,-3.445 -2.791,-6.235 -6.243,-6.235 -3.445,0 -6.236,2.79 -6.236,6.235 0,3.446 2.791,6.236 6.236,6.236 h 70.338 c 3.445,0 6.236,-2.79 6.236,-6.236 0,-3.445 -2.791,-6.235 -6.236,-6.235 -3.445,0 -6.236,2.79 -6.236,6.235 V 0 H 10.713 9.91 6.539 -0.008 Z M 0,-6.183 H 6.547 V -12.367 -44.8 -66.447 c 22.896,13.774 31.422,18.379 31.422,54.594 v 38.7 L 10.988,42.42 -15.991,58.002 -42.972,42.42 -69.953,26.847 v -38.7 c 0,-35.961 8.409,-40.754 30.954,-54.303 v 20.18 33.61 6.183 h 6.549 6.547 6.548 6.257 6.547 z M -41.008,18.572 H 8.557 c 1.695,0 3.088,-1.39 3.088,-3.087 0,-1.704 -1.393,-3.089 -3.088,-3.089 h -49.565 c -1.704,0 -3.088,1.392 -3.088,3.089 0,1.703 1.391,3.087 3.088,3.087 m 11.653,12.367 H -3.088 C -1.385,30.939 0,29.547 0,27.851 0,26.147 -1.393,24.765 -3.088,24.765 h -26.267 c -1.705,0 -3.089,1.39 -3.089,3.086 0,1.705 1.392,3.088 3.089,3.088 M 0.008,-77.994 v 65.627 h -6.551 v -69.802 c -2.104,-1.377 -4.293,-2.836 -6.547,-4.381 v 7.64 19.532 47.011 h -6.258 v -47.011 -19.211 -7.641 c -2.261,1.547 -4.442,2.998 -6.547,4.365 v 69.498 h -6.547 v -65.33 c -2.285,1.42 -4.466,2.754 -6.549,4.004 -27.174,16.414 -37.226,20.699 -37.226,62.234 v 42.324 l 30.12,17.389 30.12,17.389 30.122,-17.389 30.121,-17.389 v -42.324 c 0,-41.771 -10.172,-45.873 -37.704,-62.525 -2.083,-1.258 -4.263,-2.59 -6.546,-4.017 z" /></g><g
       style="fill:#000000"
       transform="matrix(1.4391967,0,0,1.4391967,-31.502138,13.801678)"
       id="g967"><g
         style="fill:#000000"
         id="g24"
         transform="translate(260.1118,237.8379)"><path
           d="M 0,0 H 14.472 V -4.391 H 5.374 v -5.41 h 8.501 v -4.355 H 5.374 v -9.52 H 0 Z"
           style="fill:#000000;fill-opacity:1;fill-rule:nonzero;stroke:none"
           id="path26" /></g><g
         style="fill:#000000"
         id="g28"
         transform="translate(284.2456,225.9297)"><path
           d="m 0,0 c 0,-4.637 2.178,-7.902 5.761,-7.902 3.618,0 5.69,3.441 5.69,8.043 0,4.25 -2.037,7.902 -5.725,7.902 C 2.107,8.043 0,4.602 0,0 m 17.106,0.316 c 0,-7.763 -4.707,-12.47 -11.627,-12.47 -7.025,0 -11.134,5.304 -11.134,12.049 0,7.095 4.531,12.4 11.521,12.4 7.271,0 11.24,-5.445 11.24,-11.979"
           style="fill:#000000;fill-opacity:1;fill-rule:nonzero;stroke:none"
           id="path30" /></g><g
         style="fill:#000000"
         id="g32"
         transform="translate(311.2261,227.334)"><path
           d="m 0,0 h 2.107 c 2.67,0 4.251,1.336 4.251,3.408 0,2.178 -1.475,3.266 -3.934,3.301 C 1.124,6.709 0.387,6.604 0,6.533 Z m -5.304,10.188 c 1.721,0.281 4.285,0.492 7.131,0.492 3.512,0 5.971,-0.528 7.657,-1.864 1.406,-1.123 2.178,-2.773 2.178,-4.951 0,-3.021 -2.142,-5.094 -4.18,-5.832 v -0.105 c 1.651,-0.666 2.564,-2.248 3.162,-4.426 0.737,-2.67 1.474,-5.76 1.931,-6.674 H 7.096 c -0.387,0.668 -0.949,2.6 -1.652,5.516 -0.632,2.949 -1.65,3.758 -3.828,3.793 H 0 v -9.309 h -5.304 z"
           style="fill:#000000;fill-opacity:1;fill-rule:nonzero;stroke:none"
           id="path34" /></g><g
         style="fill:#000000"
         id="g36"
         transform="translate(341.894,224.1738)"><path
           d="M 0,0 H -8.711 V -5.621 H 1.02 v -4.391 H -14.085 V 13.664 H 0.527 V 9.273 H -8.711 V 4.355 H 0 Z"
           style="fill:#000000;fill-opacity:1;fill-rule:nonzero;stroke:none"
           id="path38" /></g><g
         style="fill:#000000"
         id="g40"
         transform="translate(347.7983,219.6777)"><path
           d="m 0,0 c 1.439,-0.738 3.653,-1.477 5.936,-1.477 2.459,0 3.758,1.02 3.758,2.565 0,1.476 -1.124,2.318 -3.968,3.338 -3.935,1.369 -6.499,3.547 -6.499,6.99 0,4.039 3.372,7.131 8.957,7.131 2.67,0 4.636,-0.563 6.042,-1.195 l -1.195,-4.321 c -0.948,0.457 -2.634,1.125 -4.952,1.125 -2.318,0 -3.442,-1.054 -3.442,-2.283 0,-1.512 1.334,-2.18 4.39,-3.338 4.18,-1.545 6.147,-3.723 6.147,-7.06 0,-3.969 -3.056,-7.342 -9.554,-7.342 -2.705,0 -5.374,0.703 -6.709,1.441 z"
           style="fill:#000000;fill-opacity:1;fill-rule:nonzero;stroke:none"
           id="path42" /></g><path
         d="m 373.021,214.162 h -5.374 v 23.676 h 5.374 z"
         style="fill:#000000;fill-opacity:1;fill-rule:nonzero;stroke:none"
         id="path44" /><g
         style="fill:#000000"
         id="g46"
         transform="translate(398.4878,215.252)"><path
           d="m 0,0 c -1.65,-0.562 -4.776,-1.336 -7.903,-1.336 -4.321,0 -7.447,1.09 -9.624,3.197 -2.178,2.037 -3.372,5.129 -3.337,8.606 0.035,7.869 5.76,12.365 13.523,12.365 3.056,0 5.409,-0.598 6.569,-1.16 l -1.124,-4.285 c -1.3,0.562 -2.916,1.019 -5.515,1.019 -4.461,0 -7.833,-2.529 -7.833,-7.658 0,-4.883 3.056,-7.764 7.446,-7.764 1.23,0 2.213,0.141 2.635,0.352 v 4.953 h -3.653 v 4.18 H 0 Z"
           style="fill:#000000;fill-opacity:1;fill-rule:nonzero;stroke:none"
           id="path48" /></g><g
         style="fill:#000000"
         id="g50"
         transform="translate(409.0996,237.8379)"><path
           d="M 0,0 V -9.098 H 8.816 V 0 h 5.34 v -23.676 h -5.34 v 9.906 H 0 v -9.906 H -5.373 V 0 Z"
           style="fill:#000000;fill-opacity:1;fill-rule:nonzero;stroke:none"
           id="path52" /></g><g
         style="fill:#000000"
         id="g54"
         transform="translate(433.5508,233.3418)"><path
           d="M 0,0 H -6.357 V 4.496 H 11.838 V 0 H 5.375 V -19.18 H 0 Z"
           style="fill:#000000;fill-opacity:1;fill-rule:nonzero;stroke:none"
           id="path56" /></g><g
         style="fill:#000000"
         id="g58"
         transform="translate(457.4414,237.8379)"><path
           d="m 0,0 h 5.373 v -19.18 h 9.414 v -4.496 H 0 Z"
           style="fill:#000000;fill-opacity:1;fill-rule:nonzero;stroke:none"
           id="path60" /></g><g
         style="fill:#000000"
         id="g62"
         transform="translate(488.1797,224.2441)"><path
           d="M 0,0 -1.475,5.023 C -1.896,6.428 -2.318,8.184 -2.67,9.59 H -2.74 C -3.092,8.184 -3.441,6.393 -3.828,5.023 L -5.234,0 Z m -6.006,-4.004 -1.685,-6.078 h -5.551 l 7.236,23.676 H 1.02 L 8.359,-10.082 H 2.6 l -1.827,6.078 z"
           style="fill:#000000;fill-opacity:1;fill-rule:nonzero;stroke:none"
           id="path64" /></g><g
         style="fill:#000000"
         id="g66"
         transform="translate(502.5156,214.1621)"><path
           d="M 0,0 -5.621,23.676 H 0.104 L 1.896,13.91 C 2.422,11.1 2.914,8.045 3.301,5.656 h 0.07 c 0.387,2.565 0.949,5.408 1.545,8.324 l 2.002,9.696 h 5.691 l 1.897,-9.977 c 0.527,-2.775 0.914,-5.303 1.265,-7.937 h 0.069 c 0.351,2.634 0.879,5.408 1.371,8.218 l 1.932,9.696 h 5.445 L 18.475,0 H 12.68 l -2.002,10.188 c -0.457,2.388 -0.844,4.601 -1.125,7.304 H 9.482 C 9.061,14.824 8.676,12.576 8.113,10.188 L 5.865,0 Z"
           style="fill:#000000;fill-opacity:1;fill-rule:nonzero;stroke:none"
           id="path68" /></g></g></g></svg>
